<?xml version="1.0" encoding="UTF-8"?>
<svg version="1.1" viewBox="0 0 2048 1365" width="1280" height="1280" xmlns="http://www.w3.org/2000/svg">
<path transform="translate(228,3)" d="m0 0 7 6 19 19 8 7 7 7 8 7 11 10 11 9 14 12 14 11 21 16 19 13 11 8 15 10 19 12 15 9 22 13 24 13 33 17 28 13 25 11 27 11 31 12 36 13 36 12 50 15 56 15 46 11 45 10 25 5 20 3 2 1v2l-11 5-16 8-9 6-4 4h-2l-2 4-7 8-9 15-6 12-4 13-2 8v8l4 8 3 1 10-5 15-12 8-20 8-12 13-13 12-9 16-9 16-6 25-5 12-1v3l-26 9-18 8-16 9-17 11-6 5 2 16-8 10-8 7-10 6-7 6-13 8-6 3-4 6-1 4v12l4 7 8 6 10 6 3 1-2-9-1-5 5-16 7-11 8-8 14-7 9-2h20l12 5 10 8 8 11 6 12 8 26 7 29 3 3v-8l4-20 9-26 7-15 13-25 15-24 9-15 6-12 4-14v-16l-1-7 3-1 18-2 38-7 64-13 53-12 40-10 41-11 43-13 36-12 41-15 38-16 36-16 19-9 19-10 28-15 27-16 20-12 15-10 16-11 18-13 19-14 13-10 14-12 11-9 12-11 11-9 13-12 11-9 14-13 8-7 6-6h2l-1 8-5 19-8 26-10 27-16 34-14 25-14 22-12 16-11 14-10 11-7 8-14 15-8 7-15 14-22 18-19 14-21 14-19 12-24 14-23 12-28 13-17 8-36 15-5 2 10-1 20-3 30-4 31-6 58-13 41-10 31-8 30-9 4 1-7 8-11 11-1 2h-2l-1 3-8 7-11 11-11 9-10 9-27 21-26 17-19 12-25 14-27 13-29 12-35 12-30 8-26 6-28 5-28 4-8 1 7 3 18 5 27 7 36 10 13 4v3l-33 11-26 7-31 6-35 4-45 3-46 1 19 9 21 9 19 9 4 4-1 3-7 1-94 5-31 2h-10v2l4 2 19 14 6 5 1 5-65 1 2 9 7 18v4l-10-3-15-4-1 13v17l3 17 7 21 10 19 10 15 13 18 29 38 4 6v3l-12-2-38-7-16-3v79l-2 1-18-7-11-8-7-7-9-14-6-11-3-2-1 8-9 31-10 32-3 5-5-2-7-8-8-14-5-14-4-22-1-11v-11l-4 4-8 16-8 11-9 10-10 7-14 6-4 1-1-1v-79l-25 5-37 6h-7l1-5 16-17 9-10 9-11 14-19 9-15 8-16 5-13 5-21 2-15 1-25-24 8h-3l3-9 8-19 1-3h-70l1-4 18-14 12-9 1-2h-10l-47-3-65-3-26-2v-3l10-5 30-13 26-11 3-2-47-1-45-3-27-3-30-5-21-5-31-9-16-6v-3l27-8 47-13 27-7 1-1-19-2-40-7-36-8-29-8-30-10-35-15-34-17-24-14-22-14-19-14-14-11-13-11-11-9-7-7-8-7-24-24-1-4 18 4 243 52h5l-2-4-29-12-37-15-35-16-26-13-23-13-18-11-18-12-15-11-13-10-13-11-10-9-8-7-25-25-7-8-11-13-15-20-16-24-12-21-8-16-10-22-13-36-7-28-4-18z" fill="#1D1B44"/>
<path transform="translate(501 1e3)" d="m0 0h100l9 2 6 4 4 5 2 5 1 13-5 2-16 3h-7v-11h-84l-1 73h85v-25l-14-1h-30v-20h71l1 1-1 52-4 8-6 5-8 2h-103l-10-3-5-5-3-8-1-11v-67l2-11 4-6 6-5z" fill="#1F1C44"/>
<path transform="translate(1588 1e3)" d="m0 0h101l9 2 6 4 4 6 2 11v6l-9 3-12 2h-6v-12h-85l-1 74h86l-1-2v-21l1-3h-44v-20h71v35l-1 18-3 8-6 5-9 2h-102l-11-3-5-6-2-5-1-8v-77l3-9 4-5 7-4z" fill="#1F1D44"/>
<path transform="translate(1028 1e3)" d="m0 0h88l8 2 6 4 5 8 1 13-2 3-12 2-9 3-1-1-1-11-9-1h-67v24l87 1 7 3 6 7 2 5 1 8v25l-3 12-3 5-5 4-9 2h-94l-10-3-6-7-2-5-1-15 4-2 14-3 6-1 1 1v13l83-1v-25l-84-1-9-2-7-8-2-5-1-8v-21l2-12 5-8 7-4z" fill="#1E1C44"/>
<path transform="translate(1283 1e3)" d="m0 0h27l1 1v46l84-1 1-45 1-1h26l1 1v117l-1 1h-12l-15-1-1-49-84-1v50l-1 1h-25l-2-1z" fill="#1E1C44"/>
<path transform="translate(1768 1e3)" d="m0 0h27l1 1v46l84-1 1-45 1-1h26l1 1v117l-27 1-1-1v-50h-85v50l-2 1-26-1z" fill="#1D1B44"/>
<path transform="translate(137 1e3)" d="m0 0h118l1 1v19l-1 1h-92v26h54l1 1-1 19h-54v29h94l1 3-1 19-120 1-2-2v-116z" fill="#201D44"/>
<path transform="translate(840 1e3)" d="m0 0h117l1 2-1 19h-92v26h53l1 1v18l-1 1-53 1v28h92l2 1v21l-121 1-1-1-1-88v-24l1-5z" fill="#1F1C44"/>
<path transform="translate(1021,75)" d="m0 0 4 1 5 15 8 26 4 12h58v3l-13 10-19 14-12 9-1 2 11 33 4 6 2 17-5-2-17-13-17-12-9-6-4 1-16 12-13 9-11 8-6 3 1-5 10-30 7-22-16-12-19-13-11-9-1-3h59l12-37z" fill="#836E4C"/>
<path transform="translate(782,75)" d="m0 0 4 2 4 16 12 36h57l2 2-11 9-16 11-18 13-2 1 3 10 12 39 2 5v4l-5-2-15-12-14-10-13-10-5 2-16 12-17 12-11 8-1-3 6-17 10-32 1-6-23-16-19-14-4-3 1-3h57l6-16 10-32 2-5z" fill="#826D4C"/>
<path transform="translate(1262,75)" d="m0 0 3 2 6 21 8 26 2 5h57l2 2-11 9-19 13-16 12 1 7 6 18 6 20 5 13-5-1-18-14-17-12-9-7-4 2-19 13-12 9-10 8-5 2 1-5 12-36 4-13v-4l-18-13-14-10-12-9-2-3 60-1 2-9 14-43z" fill="#826D4C"/>
<path transform="translate(354 1e3)" d="m0 0h25l6 9 14 25 14 24 13 23 20 35v3h-29l-4-5-11-20-1-1h-73l-8 14-6 10-2 2h-25l1-5 10-18 16-28 13-23 14-25 11-19zm10 25-9 16-16 29v2h51l-6-14-18-33z" fill="#1E1C44"/>
<path transform="translate(680 1e3)" d="m0 0h27l1 1v95h87l1 1v21h-116z" fill="#201D44"/>
<path transform="translate(892,1198)" d="m0 0h55l15 1 6 4 3 3 1 4v58l-2 6-7 6h-83l-6-4-4-11v-47l2-11 5-6 4-2zm-1 15-1 2v16l1 35h62v-53z" fill="#836E4C"/>
<path transform="translate(1108,1198)" d="m0 0h66l13 1 6 4 3 5v34l-5 5-3 2-18 2 10 9 13 10 11 8v3h-24l-5-2-11-11-8-7-10-9-9-2h-9l-1 29-1 2h-17l-1-1zm19 15v23h49l2-2v-19l-2-2z" fill="#836E4C"/>
<path transform="translate(709,1198)" d="m0 0h13l5 4 11 14 14 18 9 12 4-2 27-36 7-8 4-2h11l1 1 1 14v67l-3 1h-15l-1-10v-44l-4 4-13 17-12 16-7 8-4-2-13-18-16-21-5-5 1 9-1 45-3 1h-11l-1-1v-81z" fill="#836E4C"/>
<path transform="translate(340,1198)" d="m0 0h59l19 1 7 4 3 5 1 25-1 8-5 6-5 2-15 1 2 4 13 11 14 11 3 5h-18l-9-1-15-15-16-14-3-1h-10l-5 1-1 30h-17l-1-1zm18 15v23h51l1-6v-14l-2-3z" fill="#836E4C"/>
<path transform="translate(580,1198)" d="m0 0h53l9 2 6 5 3 7-1 5-5 3-8 3h-3l-1-9h-52l-1 17h62l6 4 4 8 1 9v11l-2 8-4 6-5 3h-74l-5-4-3-8v-8l5-3 11-1 1 3v7h57v-17l1-2-62-1-5-3-4-5-1-7v-18l2-8 6-5z" fill="#836E4C"/>
<path transform="translate(1393,1198)" d="m0 0h44l18 1 10 2 10 4 7 5 6 9 4 12v19l-4 10-7 9-9 7-10 3-8 1-61 1zm18 16v51l1 1h23l17-1 10-4 5-5 4-8v-19l-4-8-6-5-5-2z" fill="#836E4C"/>
<path transform="translate(1633,1198)" d="m0 0h54l12 1 8 4 2 6 1 16-5 2-14 2v-15h-52v52h52v-17h9l8 1 1 1v19l-3 6-5 4h-71l-6-3-4-8v-58l3-7 7-5z" fill="#836E4C"/>
<path transform="translate(189,1198)" d="m0 0h16l2 1v67l54-1 1-66 1-1h17l1 5v56l-1 12-6 8-2 1h-75l-7-6-2-8v-67z" fill="#836E4C"/>
<path transform="translate(1287,1198)" d="m0 0h13l6 7 11 19 9 16 12 21 9 16v4h-19l-3-3-8-14-2-1h-49l-2 4-8 13-1 1h-14l-4-2 12-23 12-20 12-21 7-12 4-4zm3 20-10 17-7 12v2h35l-1-5-9-19-5-7z" fill="#836E4C"/>
<path transform="translate(1805,1197)" d="m0 0 9 1 6 7 6 10 24 42 9 16 2 4v4h-9l-11-1-10-16-6-1h-43l-5 5-7 12-1 1h-16l-1-2 12-23 14-24 13-24 6-8 3-2zm-1 21-6 10-10 19v2h35l-3-9-11-20-2-2z" fill="#836E4C"/>
<path transform="translate(1485 1e3)" d="m0 0h26l1 1v117l-1 1h-26l-1-2v-116z" fill="#201E44"/>
<path transform="translate(57,1198)" d="m0 0h89l1 1v14l-36 1v65l-3 2h-17l-1-67-37-1v-9l1-5z" fill="#836E4C"/>
<path transform="translate(1907,1198)" d="m0 0h11l7 1v67h61l1 3-1 12-80-1v-81z" fill="#836E4C"/>
<path transform="translate(485,1198)" d="m0 0h18l1 1v81l-1 1h-18l-1-1v-68z" fill="#836E4C"/>
<path transform="translate(1544,1198)" d="m0 0h18l1 1v81l-1 1h-13l-6-2v-72z" fill="#836E4C"/>
</svg>
